# xmcd
#
# Track frame offsets: 
#        150
#        17331
#        33683
#        50346
#        65661
#        84262
#        101739
#        118784
#        134314
#        153768
#        167944
#        183409
#
# Disc length: 2691 seconds
#
# Revision: 0
# Processed by: cddbd v1.5.2PL0 Copyright (c) Steve Scherf et al.
# Submitted via: ExactAudioCopy v1.0b3
#
DISCID=990a810c
DTITLE=Jakub Smolik - Ja za Tebou dal budu stat
DYEAR=2009
DGENRE=Country
TTITLE0=Ja za Tebou dal budu stat
TTITLE1=Barbara
TTITLE2=Tahleta pisen je Tva
TTITLE3=Nejde vratit cas
TTITLE4=Zdas se mi
TTITLE5=Nocni vila
TTITLE6=Butterfly
TTITLE7=Kde je vubec Buh
TTITLE8=Ja nejsem zlej
TTITLE9=V nebi lasko spis
TTITLE10=Sileny cas
TTITLE11=Priteli Jiri
EXTD=
EXTT0=
EXTT1=
EXTT2=
EXTT3=
EXTT4=
EXTT5=
EXTT6=
EXTT7=
EXTT8=
EXTT9=
EXTT10=
EXTT11=
PLAYORDER=
